<svg id="visual" viewBox="0 0 960 80" width="960" height="80" xmlns="http://www.w3.org/2000/svg" xmlns:xlink="http://www.w3.org/1999/xlink" version="1.1"><path d="M0 18L7 17.7C14 17.3 28 16.7 41.8 18C55.7 19.3 69.3 22.7 83.2 24.2C97 25.7 111 25.3 125 25.3C139 25.3 153 25.7 167 28C181 30.3 195 34.7 208.8 34.3C222.7 34 236.3 29 250.2 25.7C264 22.3 278 20.7 292 22.3C306 24 320 29 334 31.7C348 34.3 362 34.7 375.8 33C389.7 31.3 403.3 27.7 417.2 27.7C431 27.7 445 31.3 459 33.7C473 36 487 37 501 37.3C515 37.7 529 37.3 542.8 34.2C556.7 31 570.3 25 584.2 24.8C598 24.7 612 30.3 626 30.2C640 30 654 24 668 24C682 24 696 30 709.8 32.8C723.7 35.7 737.3 35.3 751.2 33.7C765 32 779 29 793 29.3C807 29.7 821 33.3 835 33.5C849 33.7 863 30.3 876.8 28.5C890.7 26.7 904.3 26.3 918.2 27.8C932 29.3 946 32.7 953 34.3L960 36L960 81L953 81C946 81 932 81 918.2 81C904.3 81 890.7 81 876.8 81C863 81 849 81 835 81C821 81 807 81 793 81C779 81 765 81 751.2 81C737.3 81 723.7 81 709.8 81C696 81 682 81 668 81C654 81 640 81 626 81C612 81 598 81 584.2 81C570.3 81 556.7 81 542.8 81C529 81 515 81 501 81C487 81 473 81 459 81C445 81 431 81 417.2 81C403.3 81 389.7 81 375.8 81C362 81 348 81 334 81C320 81 306 81 292 81C278 81 264 81 250.2 81C236.3 81 222.7 81 208.8 81C195 81 181 81 167 81C153 81 139 81 125 81C111 81 97 81 83.2 81C69.3 81 55.7 81 41.8 81C28 81 14 81 7 81L0 81Z" fill="#14110f"></path><path d="M0 25L7 26.2C14 27.3 28 29.7 41.8 29.2C55.7 28.7 69.3 25.3 83.2 24.2C97 23 111 24 125 26.7C139 29.3 153 33.7 167 34.2C181 34.7 195 31.3 208.8 28.5C222.7 25.7 236.3 23.3 250.2 22.8C264 22.3 278 23.7 292 23.7C306 23.7 320 22.3 334 22.8C348 23.3 362 25.7 375.8 29.3C389.7 33 403.3 38 417.2 38.2C431 38.3 445 33.7 459 31.5C473 29.3 487 29.7 501 31C515 32.3 529 34.7 542.8 36.7C556.7 38.7 570.3 40.3 584.2 38.8C598 37.3 612 32.7 626 30.8C640 29 654 30 668 31.3C682 32.7 696 34.3 709.8 34C723.7 33.7 737.3 31.3 751.2 30.7C765 30 779 31 793 31.8C807 32.7 821 33.3 835 33.3C849 33.3 863 32.7 876.8 30.8C890.7 29 904.3 26 918.2 27.7C932 29.3 946 35.7 953 38.8L960 42L960 81L953 81C946 81 932 81 918.2 81C904.3 81 890.7 81 876.8 81C863 81 849 81 835 81C821 81 807 81 793 81C779 81 765 81 751.2 81C737.3 81 723.7 81 709.8 81C696 81 682 81 668 81C654 81 640 81 626 81C612 81 598 81 584.2 81C570.3 81 556.7 81 542.8 81C529 81 515 81 501 81C487 81 473 81 459 81C445 81 431 81 417.2 81C403.3 81 389.7 81 375.8 81C362 81 348 81 334 81C320 81 306 81 292 81C278 81 264 81 250.2 81C236.3 81 222.7 81 208.8 81C195 81 181 81 167 81C153 81 139 81 125 81C111 81 97 81 83.2 81C69.3 81 55.7 81 41.8 81C28 81 14 81 7 81L0 81Z" fill="#181410"></path><path d="M0 46L7 43.5C14 41 28 36 41.8 33C55.7 30 69.3 29 83.2 30.2C97 31.3 111 34.7 125 35C139 35.3 153 32.7 167 31C181 29.3 195 28.7 208.8 28.7C222.7 28.7 236.3 29.3 250.2 31.5C264 33.7 278 37.3 292 39.5C306 41.7 320 42.3 334 41.2C348 40 362 37 375.8 34.2C389.7 31.3 403.3 28.7 417.2 30C431 31.3 445 36.7 459 37.7C473 38.7 487 35.3 501 34C515 32.7 529 33.3 542.8 35.3C556.7 37.3 570.3 40.7 584.2 41.5C598 42.3 612 40.7 626 38C640 35.3 654 31.7 668 32.2C682 32.7 696 37.3 709.8 38C723.7 38.7 737.3 35.3 751.2 34.7C765 34 779 36 793 37.8C807 39.7 821 41.3 835 40C849 38.7 863 34.3 876.8 32.8C890.7 31.3 904.3 32.7 918.2 35.2C932 37.7 946 41.3 953 43.2L960 45L960 81L953 81C946 81 932 81 918.2 81C904.3 81 890.7 81 876.8 81C863 81 849 81 835 81C821 81 807 81 793 81C779 81 765 81 751.2 81C737.3 81 723.7 81 709.8 81C696 81 682 81 668 81C654 81 640 81 626 81C612 81 598 81 584.2 81C570.3 81 556.7 81 542.8 81C529 81 515 81 501 81C487 81 473 81 459 81C445 81 431 81 417.2 81C403.3 81 389.7 81 375.8 81C362 81 348 81 334 81C320 81 306 81 292 81C278 81 264 81 250.2 81C236.3 81 222.7 81 208.8 81C195 81 181 81 167 81C153 81 139 81 125 81C111 81 97 81 83.2 81C69.3 81 55.7 81 41.8 81C28 81 14 81 7 81L0 81Z" fill="#1b1711"></path><path d="M0 32L7 34.5C14 37 28 42 41.8 43.3C55.7 44.7 69.3 42.3 83.2 41.2C97 40 111 40 125 41.7C139 43.3 153 46.7 167 45.3C181 44 195 38 208.8 34.8C222.7 31.7 236.3 31.3 250.2 32.8C264 34.3 278 37.7 292 40.5C306 43.3 320 45.7 334 44.3C348 43 362 38 375.8 38C389.7 38 403.3 43 417.2 43.8C431 44.7 445 41.3 459 38.8C473 36.3 487 34.7 501 33.8C515 33 529 33 542.8 35C556.7 37 570.3 41 584.2 41.3C598 41.7 612 38.3 626 38.3C640 38.3 654 41.7 668 44C682 46.3 696 47.7 709.8 47.7C723.7 47.7 737.3 46.3 751.2 45.3C765 44.3 779 43.7 793 43.5C807 43.3 821 43.7 835 44.5C849 45.3 863 46.7 876.8 47.3C890.7 48 904.3 48 918.2 48C932 48 946 48 953 48L960 48L960 81L953 81C946 81 932 81 918.2 81C904.3 81 890.7 81 876.8 81C863 81 849 81 835 81C821 81 807 81 793 81C779 81 765 81 751.2 81C737.3 81 723.7 81 709.8 81C696 81 682 81 668 81C654 81 640 81 626 81C612 81 598 81 584.2 81C570.3 81 556.7 81 542.8 81C529 81 515 81 501 81C487 81 473 81 459 81C445 81 431 81 417.2 81C403.3 81 389.7 81 375.8 81C362 81 348 81 334 81C320 81 306 81 292 81C278 81 264 81 250.2 81C236.3 81 222.7 81 208.8 81C195 81 181 81 167 81C153 81 139 81 125 81C111 81 97 81 83.2 81C69.3 81 55.7 81 41.8 81C28 81 14 81 7 81L0 81Z" fill="#1e1a12"></path><path d="M0 40L7 41.5C14 43 28 46 41.8 47.8C55.7 49.7 69.3 50.3 83.2 49.8C97 49.3 111 47.7 125 45.8C139 44 153 42 167 42C181 42 195 44 208.8 45.5C222.7 47 236.3 48 250.2 48.5C264 49 278 49 292 47.5C306 46 320 43 334 43.5C348 44 362 48 375.8 48.2C389.7 48.3 403.3 44.7 417.2 43.3C431 42 445 43 459 43.7C473 44.3 487 44.7 501 43.8C515 43 529 41 542.8 40.7C556.7 40.3 570.3 41.7 584.2 42.7C598 43.7 612 44.3 626 46C640 47.7 654 50.3 668 49.3C682 48.3 696 43.7 709.8 40.8C723.7 38 737.3 37 751.2 37.7C765 38.3 779 40.7 793 43.5C807 46.3 821 49.7 835 49.3C849 49 863 45 876.8 43.8C890.7 42.7 904.3 44.3 918.2 44.5C932 44.7 946 43.3 953 42.7L960 42L960 81L953 81C946 81 932 81 918.2 81C904.3 81 890.7 81 876.8 81C863 81 849 81 835 81C821 81 807 81 793 81C779 81 765 81 751.2 81C737.3 81 723.7 81 709.8 81C696 81 682 81 668 81C654 81 640 81 626 81C612 81 598 81 584.2 81C570.3 81 556.7 81 542.8 81C529 81 515 81 501 81C487 81 473 81 459 81C445 81 431 81 417.2 81C403.3 81 389.7 81 375.8 81C362 81 348 81 334 81C320 81 306 81 292 81C278 81 264 81 250.2 81C236.3 81 222.7 81 208.8 81C195 81 181 81 167 81C153 81 139 81 125 81C111 81 97 81 83.2 81C69.3 81 55.7 81 41.8 81C28 81 14 81 7 81L0 81Z" fill="#201d13"></path><path d="M0 51L7 49.7C14 48.3 28 45.7 41.8 45.5C55.7 45.3 69.3 47.7 83.2 49.7C97 51.7 111 53.3 125 53.2C139 53 153 51 167 51.2C181 51.3 195 53.7 208.8 52.8C222.7 52 236.3 48 250.2 46.7C264 45.3 278 46.7 292 48.5C306 50.3 320 52.7 334 53.7C348 54.7 362 54.3 375.8 53.3C389.7 52.3 403.3 50.7 417.2 50.8C431 51 445 53 459 52.5C473 52 487 49 501 48.5C515 48 529 50 542.8 50C556.7 50 570.3 48 584.2 46.5C598 45 612 44 626 44.3C640 44.7 654 46.3 668 47.2C682 48 696 48 709.8 47.7C723.7 47.3 737.3 46.7 751.2 45.5C765 44.3 779 42.7 793 42.3C807 42 821 43 835 44.3C849 45.7 863 47.3 876.8 47.3C890.7 47.3 904.3 45.7 918.2 46.8C932 48 946 52 953 54L960 56L960 81L953 81C946 81 932 81 918.2 81C904.3 81 890.7 81 876.8 81C863 81 849 81 835 81C821 81 807 81 793 81C779 81 765 81 751.2 81C737.3 81 723.7 81 709.8 81C696 81 682 81 668 81C654 81 640 81 626 81C612 81 598 81 584.2 81C570.3 81 556.7 81 542.8 81C529 81 515 81 501 81C487 81 473 81 459 81C445 81 431 81 417.2 81C403.3 81 389.7 81 375.8 81C362 81 348 81 334 81C320 81 306 81 292 81C278 81 264 81 250.2 81C236.3 81 222.7 81 208.8 81C195 81 181 81 167 81C153 81 139 81 125 81C111 81 97 81 83.2 81C69.3 81 55.7 81 41.8 81C28 81 14 81 7 81L0 81Z" fill="#212014"></path><path d="M0 53L7 53.5C14 54 28 55 41.8 54C55.7 53 69.3 50 83.2 48.3C97 46.7 111 46.3 125 46.8C139 47.3 153 48.7 167 50.8C181 53 195 56 208.8 56.7C222.7 57.3 236.3 55.7 250.2 55.8C264 56 278 58 292 57.2C306 56.3 320 52.7 334 51C348 49.3 362 49.7 375.8 49.7C389.7 49.7 403.3 49.3 417.2 49.5C431 49.7 445 50.3 459 50.3C473 50.3 487 49.7 501 49C515 48.3 529 47.7 542.8 47.7C556.7 47.7 570.3 48.3 584.2 50.2C598 52 612 55 626 56C640 57 654 56 668 56.2C682 56.3 696 57.7 709.8 57.2C723.7 56.7 737.3 54.3 751.2 52.8C765 51.3 779 50.7 793 50.2C807 49.7 821 49.3 835 49C849 48.7 863 48.3 876.8 48.2C890.7 48 904.3 48 918.2 49C932 50 946 52 953 53L960 54L960 81L953 81C946 81 932 81 918.2 81C904.3 81 890.7 81 876.8 81C863 81 849 81 835 81C821 81 807 81 793 81C779 81 765 81 751.2 81C737.3 81 723.7 81 709.8 81C696 81 682 81 668 81C654 81 640 81 626 81C612 81 598 81 584.2 81C570.3 81 556.7 81 542.8 81C529 81 515 81 501 81C487 81 473 81 459 81C445 81 431 81 417.2 81C403.3 81 389.7 81 375.8 81C362 81 348 81 334 81C320 81 306 81 292 81C278 81 264 81 250.2 81C236.3 81 222.7 81 208.8 81C195 81 181 81 167 81C153 81 139 81 125 81C111 81 97 81 83.2 81C69.3 81 55.7 81 41.8 81C28 81 14 81 7 81L0 81Z" fill="#222416"></path><path d="M0 58L7 56.7C14 55.3 28 52.7 41.8 53.5C55.7 54.3 69.3 58.7 83.2 59.3C97 60 111 57 125 56.3C139 55.7 153 57.3 167 57C181 56.7 195 54.3 208.8 54.5C222.7 54.7 236.3 57.3 250.2 59C264 60.7 278 61.3 292 60.5C306 59.7 320 57.3 334 57.2C348 57 362 59 375.8 60C389.7 61 403.3 61 417.2 60.5C431 60 445 59 459 59C473 59 487 60 501 59.8C515 59.7 529 58.3 542.8 58.2C556.7 58 570.3 59 584.2 58.7C598 58.3 612 56.7 626 55.2C640 53.7 654 52.3 668 51.8C682 51.3 696 51.7 709.8 53.3C723.7 55 737.3 58 751.2 59.2C765 60.3 779 59.7 793 58.3C807 57 821 55 835 53.7C849 52.3 863 51.7 876.8 52.3C890.7 53 904.3 55 918.2 56.3C932 57.7 946 58.3 953 58.7L960 59L960 81L953 81C946 81 932 81 918.2 81C904.3 81 890.7 81 876.8 81C863 81 849 81 835 81C821 81 807 81 793 81C779 81 765 81 751.2 81C737.3 81 723.7 81 709.8 81C696 81 682 81 668 81C654 81 640 81 626 81C612 81 598 81 584.2 81C570.3 81 556.7 81 542.8 81C529 81 515 81 501 81C487 81 473 81 459 81C445 81 431 81 417.2 81C403.3 81 389.7 81 375.8 81C362 81 348 81 334 81C320 81 306 81 292 81C278 81 264 81 250.2 81C236.3 81 222.7 81 208.8 81C195 81 181 81 167 81C153 81 139 81 125 81C111 81 97 81 83.2 81C69.3 81 55.7 81 41.8 81C28 81 14 81 7 81L0 81Z" fill="#232717"></path><path d="M0 60L7 61C14 62 28 64 41.8 64.8C55.7 65.7 69.3 65.3 83.2 64.2C97 63 111 61 125 60C139 59 153 59 167 58.5C181 58 195 57 208.8 57.8C222.7 58.7 236.3 61.3 250.2 62C264 62.7 278 61.3 292 60C306 58.7 320 57.3 334 57.2C348 57 362 58 375.8 59.5C389.7 61 403.3 63 417.2 63.5C431 64 445 63 459 61.5C473 60 487 58 501 57.7C515 57.3 529 58.7 542.8 59.2C556.7 59.7 570.3 59.3 584.2 58.7C598 58 612 57 626 58C640 59 654 62 668 63.2C682 64.3 696 63.7 709.8 62.5C723.7 61.3 737.3 59.7 751.2 59.8C765 60 779 62 793 62.3C807 62.7 821 61.3 835 60C849 58.7 863 57.3 876.8 58.2C890.7 59 904.3 62 918.2 62C932 62 946 59 953 57.5L960 56L960 81L953 81C946 81 932 81 918.2 81C904.3 81 890.7 81 876.8 81C863 81 849 81 835 81C821 81 807 81 793 81C779 81 765 81 751.2 81C737.3 81 723.7 81 709.8 81C696 81 682 81 668 81C654 81 640 81 626 81C612 81 598 81 584.2 81C570.3 81 556.7 81 542.8 81C529 81 515 81 501 81C487 81 473 81 459 81C445 81 431 81 417.2 81C403.3 81 389.7 81 375.8 81C362 81 348 81 334 81C320 81 306 81 292 81C278 81 264 81 250.2 81C236.3 81 222.7 81 208.8 81C195 81 181 81 167 81C153 81 139 81 125 81C111 81 97 81 83.2 81C69.3 81 55.7 81 41.8 81C28 81 14 81 7 81L0 81Z" fill="#232b1a"></path><path d="M0 69L7 68.2C14 67.3 28 65.7 41.8 64.7C55.7 63.7 69.3 63.3 83.2 63.8C97 64.3 111 65.7 125 65.7C139 65.7 153 64.3 167 64.7C181 65 195 67 208.8 68C222.7 69 236.3 69 250.2 69C264 69 278 69 292 68.7C306 68.3 320 67.7 334 66.8C348 66 362 65 375.8 65.3C389.7 65.7 403.3 67.3 417.2 67.8C431 68.3 445 67.7 459 67C473 66.3 487 65.7 501 65.5C515 65.3 529 65.7 542.8 66.2C556.7 66.7 570.3 67.3 584.2 67.5C598 67.7 612 67.3 626 67.5C640 67.7 654 68.3 668 68.3C682 68.3 696 67.7 709.8 66.7C723.7 65.7 737.3 64.3 751.2 63.7C765 63 779 63 793 62.7C807 62.3 821 61.7 835 62.3C849 63 863 65 876.8 65.3C890.7 65.7 904.3 64.3 918.2 63.3C932 62.3 946 61.7 953 61.3L960 61L960 81L953 81C946 81 932 81 918.2 81C904.3 81 890.7 81 876.8 81C863 81 849 81 835 81C821 81 807 81 793 81C779 81 765 81 751.2 81C737.3 81 723.7 81 709.8 81C696 81 682 81 668 81C654 81 640 81 626 81C612 81 598 81 584.2 81C570.3 81 556.7 81 542.8 81C529 81 515 81 501 81C487 81 473 81 459 81C445 81 431 81 417.2 81C403.3 81 389.7 81 375.8 81C362 81 348 81 334 81C320 81 306 81 292 81C278 81 264 81 250.2 81C236.3 81 222.7 81 208.8 81C195 81 181 81 167 81C153 81 139 81 125 81C111 81 97 81 83.2 81C69.3 81 55.7 81 41.8 81C28 81 14 81 7 81L0 81Z" fill="#222e1c"></path><path d="M0 71L7 71.2C14 71.3 28 71.7 41.8 71.2C55.7 70.7 69.3 69.3 83.2 69.2C97 69 111 70 125 69.7C139 69.3 153 67.7 167 67.5C181 67.3 195 68.7 208.8 69.8C222.7 71 236.3 72 250.2 72C264 72 278 71 292 71C306 71 320 72 334 72.2C348 72.3 362 71.7 375.8 71.3C389.7 71 403.3 71 417.2 70C431 69 445 67 459 67.2C473 67.3 487 69.7 501 71C515 72.3 529 72.7 542.8 72.8C556.7 73 570.3 73 584.2 72.8C598 72.7 612 72.3 626 72C640 71.7 654 71.3 668 70.7C682 70 696 69 709.8 68.7C723.7 68.3 737.3 68.7 751.2 68.7C765 68.7 779 68.3 793 68.8C807 69.3 821 70.7 835 71.5C849 72.3 863 72.7 876.8 72.7C890.7 72.7 904.3 72.3 918.2 71.5C932 70.7 946 69.3 953 68.7L960 68L960 81L953 81C946 81 932 81 918.2 81C904.3 81 890.7 81 876.8 81C863 81 849 81 835 81C821 81 807 81 793 81C779 81 765 81 751.2 81C737.3 81 723.7 81 709.8 81C696 81 682 81 668 81C654 81 640 81 626 81C612 81 598 81 584.2 81C570.3 81 556.7 81 542.8 81C529 81 515 81 501 81C487 81 473 81 459 81C445 81 431 81 417.2 81C403.3 81 389.7 81 375.8 81C362 81 348 81 334 81C320 81 306 81 292 81C278 81 264 81 250.2 81C236.3 81 222.7 81 208.8 81C195 81 181 81 167 81C153 81 139 81 125 81C111 81 97 81 83.2 81C69.3 81 55.7 81 41.8 81C28 81 14 81 7 81L0 81Z" fill="#203220"></path><path d="M0 73L7 72.8C14 72.7 28 72.3 41.8 72.2C55.7 72 69.3 72 83.2 72.8C97 73.7 111 75.3 125 75.5C139 75.7 153 74.3 167 73.5C181 72.7 195 72.3 208.8 72.3C222.7 72.3 236.3 72.7 250.2 73C264 73.3 278 73.7 292 73.8C306 74 320 74 334 74.5C348 75 362 76 375.8 75.5C389.7 75 403.3 73 417.2 72.8C431 72.7 445 74.3 459 75.2C473 76 487 76 501 75.8C515 75.7 529 75.3 542.8 74.7C556.7 74 570.3 73 584.2 72.3C598 71.7 612 71.3 626 71C640 70.7 654 70.3 668 70.3C682 70.3 696 70.7 709.8 71C723.7 71.3 737.3 71.7 751.2 71.7C765 71.7 779 71.3 793 71.3C807 71.3 821 71.7 835 72.5C849 73.3 863 74.7 876.8 75.3C890.7 76 904.3 76 918.2 75.7C932 75.3 946 74.7 953 74.3L960 74L960 81L953 81C946 81 932 81 918.2 81C904.3 81 890.7 81 876.8 81C863 81 849 81 835 81C821 81 807 81 793 81C779 81 765 81 751.2 81C737.3 81 723.7 81 709.8 81C696 81 682 81 668 81C654 81 640 81 626 81C612 81 598 81 584.2 81C570.3 81 556.7 81 542.8 81C529 81 515 81 501 81C487 81 473 81 459 81C445 81 431 81 417.2 81C403.3 81 389.7 81 375.8 81C362 81 348 81 334 81C320 81 306 81 292 81C278 81 264 81 250.2 81C236.3 81 222.7 81 208.8 81C195 81 181 81 167 81C153 81 139 81 125 81C111 81 97 81 83.2 81C69.3 81 55.7 81 41.8 81C28 81 14 81 7 81L0 81Z" fill="#1e3624"></path></svg>