<svg id="visual" viewBox="0 0 960 540" width="960" height="540" xmlns="http://www.w3.org/2000/svg" xmlns:xlink="http://www.w3.org/1999/xlink" version="1.1"><path d="M0 23L80 23L80 23L160 23L160 17L240 17L240 23L320 23L320 23L400 23L400 23L480 23L480 17L560 17L560 23L640 23L640 17L720 17L720 17L800 17L800 23L880 23L880 23L960 23L960 23L960 0L960 0L880 0L880 0L800 0L800 0L720 0L720 0L640 0L640 0L560 0L560 0L480 0L480 0L400 0L400 0L320 0L320 0L240 0L240 0L160 0L160 0L80 0L80 0L0 0Z" fill="#14110f"></path><path d="M0 44L80 44L80 44L160 44L160 44L240 44L240 50L320 50L320 44L400 44L400 44L480 44L480 44L560 44L560 50L640 50L640 44L720 44L720 39L800 39L800 44L880 44L880 44L960 44L960 44L960 21L960 21L880 21L880 21L800 21L800 15L720 15L720 15L640 15L640 21L560 21L560 15L480 15L480 21L400 21L400 21L320 21L320 21L240 21L240 15L160 15L160 21L80 21L80 21L0 21Z" fill="#1b1815"></path><path d="M0 71L80 71L80 77L160 77L160 77L240 77L240 71L320 71L320 77L400 77L400 77L480 77L480 66L560 66L560 82L640 82L640 66L720 66L720 60L800 60L800 77L880 77L880 71L960 71L960 66L960 42L960 42L880 42L880 42L800 42L800 37L720 37L720 42L640 42L640 48L560 48L560 42L480 42L480 42L400 42L400 42L320 42L320 48L240 48L240 42L160 42L160 42L80 42L80 42L0 42Z" fill="#221e1a"></path><path d="M0 120L80 120L80 120L160 120L160 136L240 136L240 120L320 120L320 136L400 136L400 120L480 120L480 120L560 120L560 131L640 131L640 109L720 109L720 109L800 109L800 120L880 120L880 109L960 109L960 104L960 64L960 69L880 69L880 75L800 75L800 58L720 58L720 64L640 64L640 80L560 80L560 64L480 64L480 75L400 75L400 75L320 75L320 69L240 69L240 75L160 75L160 75L80 75L80 69L0 69Z" fill="#28241f"></path><path d="M0 195L80 195L80 190L160 190L160 201L240 201L240 190L320 190L320 206L400 206L400 185L480 185L480 185L560 185L560 179L640 179L640 163L720 163L720 179L800 179L800 185L880 185L880 185L960 185L960 174L960 102L960 107L880 107L880 118L800 118L800 107L720 107L720 107L640 107L640 129L560 129L560 118L480 118L480 118L400 118L400 134L320 134L320 118L240 118L240 134L160 134L160 118L80 118L80 118L0 118Z" fill="#2f2a25"></path><path d="M0 233L80 233L80 217L160 217L160 228L240 228L240 222L320 222L320 239L400 239L400 212L480 212L480 212L560 212L560 206L640 206L640 195L720 195L720 206L800 206L800 212L880 212L880 217L960 217L960 206L960 172L960 183L880 183L880 183L800 183L800 177L720 177L720 161L640 161L640 177L560 177L560 183L480 183L480 183L400 183L400 204L320 204L320 188L240 188L240 199L160 199L160 188L80 188L80 193L0 193Z" fill="#322c27"></path><path d="M0 325L80 325L80 325L160 325L160 314L240 314L240 336L320 336L320 341L400 341L400 309L480 309L480 303L560 303L560 309L640 309L640 314L720 314L720 336L800 336L800 314L880 314L880 341L960 341L960 298L960 204L960 215L880 215L880 210L800 210L800 204L720 204L720 193L640 193L640 204L560 204L560 210L480 210L480 210L400 210L400 237L320 237L320 220L240 220L240 226L160 226L160 215L80 215L80 231L0 231Z" fill="#322c27"></path><path d="M0 347L80 347L80 347L160 347L160 341L240 341L240 363L320 363L320 363L400 363L400 336L480 336L480 330L560 330L560 330L640 330L640 336L720 336L720 363L800 363L800 341L880 341L880 368L960 368L960 325L960 296L960 339L880 339L880 312L800 312L800 334L720 334L720 312L640 312L640 307L560 307L560 301L480 301L480 307L400 307L400 339L320 339L320 334L240 334L240 312L160 312L160 323L80 323L80 323L0 323Z" fill="#2f2a25"></path><path d="M0 384L80 384L80 379L160 379L160 384L240 384L240 401L320 401L320 401L400 401L400 368L480 368L480 363L560 363L560 374L640 374L640 374L720 374L720 395L800 395L800 374L880 374L880 406L960 406L960 374L960 323L960 366L880 366L880 339L800 339L800 361L720 361L720 334L640 334L640 328L560 328L560 328L480 328L480 334L400 334L400 361L320 361L320 361L240 361L240 339L160 339L160 345L80 345L80 345L0 345Z" fill="#28241f"></path><path d="M0 401L80 401L80 395L160 395L160 401L240 401L240 422L320 422L320 417L400 417L400 384L480 384L480 384L560 384L560 395L640 395L640 390L720 390L720 417L800 417L800 390L880 390L880 428L960 428L960 395L960 372L960 404L880 404L880 372L800 372L800 393L720 393L720 372L640 372L640 372L560 372L560 361L480 361L480 366L400 366L400 399L320 399L320 399L240 399L240 382L160 382L160 377L80 377L80 382L0 382Z" fill="#221e1a"></path><path d="M0 509L80 509L80 503L160 503L160 514L240 514L240 509L320 509L320 509L400 509L400 514L480 514L480 503L560 503L560 509L640 509L640 503L720 503L720 498L800 498L800 514L880 514L880 503L960 503L960 509L960 393L960 426L880 426L880 388L800 388L800 415L720 415L720 388L640 388L640 393L560 393L560 382L480 382L480 382L400 382L400 415L320 415L320 420L240 420L240 399L160 399L160 393L80 393L80 399L0 399Z" fill="#1b1815"></path><path d="M0 541L80 541L80 541L160 541L160 541L240 541L240 541L320 541L320 541L400 541L400 541L480 541L480 541L560 541L560 541L640 541L640 541L720 541L720 541L800 541L800 541L880 541L880 541L960 541L960 541L960 507L960 501L880 501L880 512L800 512L800 496L720 496L720 501L640 501L640 507L560 507L560 501L480 501L480 512L400 512L400 507L320 507L320 507L240 507L240 512L160 512L160 501L80 501L80 507L0 507Z" fill="#14110f"></path></svg>