<svg xmlns="http://www.w3.org/2000/svg" width="1706.667" height="853.333" version="1.0" viewBox="0 0 1280 640"><g fill="#fff"><path d="M75.8 251.1c-27.1 3.3-50.7 15-63.1 31-17.5 22.8-16.6 57.6 2 76.6 9.1 9.3 23.2 14.2 37.4 12.8 19.6-1.8 32.4-10.1 39.8-25.5 3.5-7.3 3.6-7.8 3.6-19.5 0-11.4-.2-12.3-3.2-18.7-6.1-13-16.6-20.9-27.7-21-13.6-.1-18.7 11.7-6.5 15.4 3.5 1 5.2.9 11.1-.6l7-1.8 2.4 2.3c1.3 1.3 3.7 4.8 5.2 7.8 2.5 5.1 2.7 6.6 2.7 17.1 0 10.5-.2 11.9-2.7 16.5-6.9 13.3-21.5 20.4-39.3 19.2-5.9-.3-9.9-1.2-13.8-3C17.2 353.6 9 338.2 9 319.5c0-15.5 4.6-26.3 16.1-37.7 6.1-6.1 9.5-8.6 17-12.2 14.4-6.9 26.8-9.7 47.4-10.3 27.6-.9 49.7 3.5 82.7 16.3 4.8 1.9 9.1 3.4 9.6 3.4.4 0 2.3-1.3 4.2-2.8l3.4-2.9-13-5c-32-12.6-51.6-17.1-76.4-17.8-9.1-.2-19.9 0-24.2.6zM1166.3 251c-16.8 1.8-38.3 7.7-62.7 17.3l-13 5 3.4 2.9c1.9 1.5 3.8 2.8 4.2 2.8.4 0 3.1-1 6-2.1 19.7-7.9 41.2-14 58-16.5 16.6-2.4 41.5-1.5 55.8 2.1 16 3.9 27.5 10 36.9 19.3 11.5 11.4 16.1 22.2 16.1 37.7 0 9.3-2.4 19.1-6.4 25.9-6.5 11.1-15.5 16.5-29.1 17.3-17.8 1.2-32.4-5.9-39.3-19.2-2.5-4.6-2.7-6-2.7-16.5s.2-12 2.7-17.1c1.5-3 3.9-6.5 5.2-7.8l2.4-2.3 7 1.8c5.9 1.5 7.6 1.6 11.1.6 12.2-3.7 7.1-15.5-6.5-15.4-11.1.1-21.6 8-27.7 21-3 6.4-3.2 7.3-3.2 18.7 0 11.7.1 12.2 3.6 19.5 5.7 11.9 15.7 20.3 28.3 23.6 24.8 6.6 47.3-2.4 57.4-22.9 10.1-20.5 7.5-45.9-6.7-64.7-17.6-23.4-57.3-35.6-100.8-31zM454.8 253.9c-7.5 2.4-11.8 5.2-17.2 11.2-6.1 6.8-8.1 13-8 24.9.1 10.5 3.1 21.3 8 29.1 1.4 2.3 2.4 4.2 2.2 4.4-.2.2-7.1-3.5-15.3-8.2-38.9-22.3-74.2-39.4-97.5-47.3-37.4-12.8-77.8-14.2-110-3.8-24.5 7.8-44.4 24.3-54.7 45.3-4.6 9.3-5.8 14.9-5.7 26.5.1 8.9.5 11.6 2.7 17.4 8.6 22 28.1 35.6 51.2 35.6 9.6 0 16.6-1.8 26-6.4 13.2-6.6 23-16.4 23.5-23.6.5-6.2-.1-8.3-3.4-11.6-2.6-2.6-4.2-3.4-6.9-3.4-7.4 0-11.1 6.8-9.7 17.9.7 5.7.5 6-7 10.3-7.7 4.4-15.2 6.1-25.4 5.6-7.7-.3-10.1-.9-15.9-3.7-18.7-9-28.5-30.2-23.2-50.4 5.9-22.7 29.5-44 54.3-49.2 9.3-1.9 31-2 41.7-.1 32.7 5.8 65.5 19.1 145 58.8 50.4 25.3 67.6 32.3 93.8 38.7 26.8 6.6 54.5 8.3 73.2 4.7 30.8-6 51.4-23.9 58.1-50.5 2.5-10 1.6-24.9-1.9-32.3-8.8-18.2-33.7-26.3-57.9-18.8-11.5 3.5-18.8 10.6-18.8 18.2 0 8.9 12.4 10.6 19.6 2.6 1.2-1.2 3.2-4.3 4.4-6.8 1.3-2.5 2.8-4.8 3.4-5.2 2-1.4 17.1-.8 22.4.7 7.3 2.2 13.2 7 16.5 13.5 2.7 5.2 2.8 6.1 2.5 16.5-.3 10.3-.5 11.5-4.1 18.9-7.2 15.1-22.1 26.4-42.2 31.8-11.8 3.1-37.6 3.2-52.7 0-42.2-8.8-77-33.7-85.6-61.2-2.6-8.4-2.3-23.3.5-28.6 2.9-5.4 9.3-10.9 15.1-12.8 4.7-1.7 20.7-2.2 22.8-.8.6.4 2.4 3.5 3.9 7 3.1 6.9 5.5 9.2 9.7 9.2 5.8 0 8.2-6 5-12.5-5.4-11.2-26-16.8-42.4-11.6zM801.5 252.6c-15.2 3.8-25 16.8-17.9 23.8 1.9 2 6.3 2.1 9 .2 1.1-.8 3.3-4.3 4.9-7.8 1.5-3.5 3.3-6.6 3.9-7 2.1-1.4 18.1-.9 22.8.8 5.8 1.9 12.2 7.4 15.1 12.8 2.8 5.3 3.1 20.2.5 28.6-8.6 27.5-43.4 52.4-85.6 61.2-15.1 3.2-40.9 3.1-52.7 0-20.1-5.4-35-16.7-42.2-31.8-3.6-7.4-3.8-8.6-4.1-18.9-.3-10.4-.2-11.3 2.5-16.5 3.3-6.5 9.2-11.3 16.5-13.5 5.3-1.5 20.5-2.1 22.4-.7.5.4 2 2.7 3.3 5.2 4.2 8.2 9.1 12 15.6 12 4.7 0 8.5-3.6 8.5-8.2 0-7.2-7.6-14.4-18.8-17.8-24.2-7.5-49.1.6-57.9 18.8-3.5 7.4-4.4 22.3-1.9 32.3 5.3 21.2 20.1 37.5 41.5 45.8 22.6 8.7 54.1 8.7 89.8 0 26.2-6.4 43.4-13.4 93.8-38.7 79.5-39.7 112.3-53 145-58.8 12-2.1 33.2-1.8 43.2.6 24.9 5.9 47 26.4 52.8 48.7 5.3 20.2-4.5 41.4-23.2 50.4-13.1 6.3-31.4 4.9-43.7-3.3l-4.9-3.3.2-8.8c.2-8.5.1-8.8-2.8-11.7-7.7-7.8-19.7 1-17.1 12.5 1.3 5.6 5.5 11.1 12.3 16.2 12.1 9 24.1 13.3 37.2 13.3 38.9 0 64.8-38.8 50.1-75.1-15.7-38.8-61.5-60.8-116.9-56-27 2.2-47.6 7.9-77.3 21.1-17.1 7.6-45.8 22.6-69.9 36.3-8.2 4.7-15.1 8.4-15.3 8.2-.2-.2.8-2.1 2.2-4.4 4.9-7.8 7.9-18.6 8-29.1.1-13.2-1.9-18.6-9.8-26.6-8.1-8-14.5-10.6-27.6-11-5.2-.1-10.4-.1-11.5.2z"/><path d="M205.8 284c-2 1.1-3.9 2.4-4.2 2.9-.9 1.3 49.8 23.7 80.4 35.4 8 3 24.9 9.1 37.5 13.5 12.7 4.4 23.7 8.3 24.5 8.6.8.4 2.3 1.9 3.2 3.6 3.3 5.9 14.8 6 15.6.2.7-5-5.4-8.7-26-15.7-31-10.6-79.8-29.5-102.6-39.6-13.5-6-24.5-10.9-24.6-10.9-.1.1-1.8 1-3.8 2zM1045.4 293c-22.4 10-70.7 28.7-102.2 39.5-20.6 7-26.7 10.7-26 15.7.8 5.8 12.3 5.7 15.6-.2.9-1.7 2.4-3.2 3.2-3.6.8-.3 11.9-4.2 24.5-8.6 12.7-4.4 29.5-10.5 37.5-13.5 30.7-11.8 81.3-34.1 80.4-35.4-.5-.9-8-5-8.6-4.8-.2 0-11.2 4.9-24.4 10.9zM308 316c0 .3 3.7 1.9 8.3 3.5 8.1 3 8.5 3 34 3.5 14.1.3 25.7.2 25.7-.1 0-.4-2.8-1.9-6.2-3.5l-6.3-2.9-27.8-.5c-15.2-.3-27.7-.3-27.7 0zM943.5 316l-27 .5-6.2 2.9c-3.5 1.6-6.3 3.1-6.3 3.5 0 .3 11.6.4 25.7.1 25.5-.5 25.9-.5 34.1-3.5 4.5-1.6 8.2-3.3 8.2-3.7 0-.5-.3-.7-.7-.6-.5.1-12.9.5-27.8.8zM14 319.5v3.5h34.1c30.7 0 34.1-.2 33.5-1.6-.3-.9-.6-2.4-.6-3.5 0-1.8-1.1-1.9-33.5-1.9H14v3.5zM101.2 319.2l.3 3.3 25.1.3 25.1.2 1-3.5 1.1-3.5h-52.9l.3 3.2zM176.6 316.9c-.3.4-1 2-1.5 3.4l-1 2.7 46.9.2c25.9.2 47 .1 47-.2 0-.3-3.7-2-8.3-3.8l-8.3-3.2h-37.1c-20.5 0-37.4.4-37.7.9zM454.6 319.5l2.6 3.5H617v-7H451.9l2.7 3.5zM663 319.5v3.5h159.8l2.6-3.5 2.7-3.5H663v3.5zM1019.8 319.3c-4.3 1.8-7.8 3.4-7.8 3.7 0 .3 21.1.4 47 .2l47-.2-1.3-3.3-1.3-3.2-38-.2-37.9-.1-7.7 3.1zM1127.3 319.5l1 3.5h24.8c26.5 0 25.9.1 25.9-5.1 0-1.8-1-1.9-26.4-1.9h-26.4l1.1 3.5zM1199 317.9c0 1.1-.3 2.6-.6 3.5-.6 1.4 2.8 1.6 33.5 1.6h34.1v-7h-33.5c-32.4 0-33.5.1-33.5 1.9z"/></g></svg>